<svg width="93" height="123" viewBox="0 0 93 123" fill="none" xmlns="http://www.w3.org/2000/svg">
<g clip-path="url(#clip0_1_3)">
<path fill-rule="evenodd" clip-rule="evenodd" d="M18.61 54.89C15.7 28.8 30.94 10.45 59.52 0C42.02 22.71 74.44 47.31 76.23 70.89C80.42 63.74 82.8 54.2 83.27 41.44C104.7 75.06 86.93 130.01 39.77 122.11C35.44 121.39 31.27 120.02 27.47 117.98C10.27 108.8 0 88.79 0 69.68C0 57.5 5.21 46.63 11.95 37.99C12.85 46.45 14.77 52.76 18.61 54.89Z" fill="#FF2600"/>
<path fill-rule="evenodd" clip-rule="evenodd" d="M33.87 92.58C29.01 80.03 29.68 59.76 43.29 52.65C43.39 75.95 66.34 78.92 62.09 103.79C66.01 99.35 67.99 92.25 68.34 86.64C74.56 100.88 69.68 112.27 60.81 118.07C33.84 135.71 10.62 99.95 26.06 80.35C26.53 84.73 31.89 91.49 33.87 92.58Z" fill="#FFC700"/>
</g>
<defs>
<clipPath id="clip0_1_3">
<rect width="92.27" height="122.88" fill="white"/>
</clipPath>
</defs>
</svg>
